<svg width="256" height="256" viewBox="0 0 256 256" fill="none" xmlns="http://www.w3.org/2000/svg">
  <rect width="256" height="256" rx="64" fill="#FFF7EB"/>
  <rect x="16" y="16" width="224" height="224" rx="48" fill="url(#bg)"/>
  <circle cx="128" cy="128" r="62" stroke="#4C2B0F" stroke-width="10" opacity="0.16"/>
  <circle cx="128" cy="128" r="42" stroke="#4C2B0F" stroke-width="10" opacity="0.22"/>
  <path d="M128 44C137.5 44 145.2 51.7 145.2 61.2V122.2L181.7 158.7C188.4 165.4 188.4 176.2 181.7 182.8C175.1 189.5 164.3 189.5 157.6 182.8L116.1 141.3C112.9 138.1 111.2 133.8 111.2 129.3V61.2C111.2 51.7 118.9 44 128 44Z" fill="#E06B1E"/>
  <circle cx="128" cy="128" r="11" fill="#4C2B0F"/>
  <path d="M191 65L199.2 83.8L220 86L205 100.2L208.8 120L191 110.6L173.2 120L177 100.2L162 86L182.8 83.8L191 65Z" fill="#F2B35C"/>
  <defs>
    <linearGradient id="bg" x1="30" y1="24" x2="229" y2="232" gradientUnits="userSpaceOnUse">
      <stop stop-color="#FFE7B5"/>
      <stop offset="1" stop-color="#F6D19C"/>
    </linearGradient>
  </defs>
</svg>
